<svg id="Layer_1" data-name="Layer 1" xmlns="http://www.w3.org/2000/svg" viewBox="0 0 155.9 47.25"><defs><style>.cls-1{fill:#161919;}</style></defs><title>Twallie Logo inverted</title><polygon class="cls-1" points="23.62 47.24 33.07 47.24 42.52 28.35 42.52 47.24 51.97 47.24 70.87 9.45 61.42 9.45 51.97 28.35 51.97 9.45 42.52 9.45 33.07 28.35 33.07 23.62 23.62 23.62 23.62 47.24"/><polygon class="cls-1" points="85.04 47.24 75.59 47.24 75.59 28.35 66.14 47.24 56.69 47.24 75.59 9.45 85.04 9.45 85.04 47.24"/><rect class="cls-1" x="118.11" y="9.45" width="9.45" height="37.8"/><rect class="cls-1" x="89.76" width="9.45" height="47.24"/><polygon class="cls-1" points="18.9 47.24 9.45 47.24 9.45 18.9 0 18.9 0 9.45 33.07 9.45 33.07 18.9 18.9 18.9 18.9 47.24"/><rect class="cls-1" x="103.94" width="9.45" height="47.24"/><rect class="cls-1" x="132.28" y="9.45" width="23.62" height="9.45"/><rect class="cls-1" x="132.28" y="37.79" width="23.62" height="9.45"/><rect class="cls-1" x="132.28" y="23.62" width="9.45" height="9.45"/></svg>